# xmcd
#
# Track frame offsets:
#	150
#	16451
#	29858
#	42904
#	56506
#	69671
#	81092
#	93662
#	105810
#	120323
#	133594
#	146648
#	160493
#	183453
#
# Disc length: 2566 seconds
#
# Revision: 1
# Processed by: cddbd v1.5.2PL0 Copyright (c) Steve Scherf et al.
# Submitted via: audiograbber 1.83.01
#
DISCID=c00a040e
DTITLE=Josef Poncar - Pres dve vesnice
DYEAR=1974
DGENRE=Dechovka
TTITLE0=Pres dve vesnice
TTITLE1=Ja nejsem zarliva
TTITLE2=Ma nejdrazsi
TTITLE3=Karlicku muj
TTITLE4=Popovicka
TTITLE5=Vy zvonky v Lorete
TTITLE6=Pocapelska
TTITLE7=Chodounska
TTITLE8=Ten vecer majovy
TTITLE9=O pouti
TTITLE10=Eluska
TTITLE11=Modra kukadla
TTITLE12=Az ja budu rukovat
TTITLE13=Data Track
EXTD=
EXTT0=
EXTT1=
EXTT2=
EXTT3=
EXTT4=
EXTT5=
EXTT6=
EXTT7=
EXTT8=
EXTT9=
EXTT10=
EXTT11=
EXTT12=
EXTT13=
PLAYORDER=
